STARTFONT 2.1
COMMENT screen bold font, 7 x 14 pixels
FONT -misc-fixed-bold-r-normal-sans-14-130-75-75-c-70-iso8859-2
SIZE 14 75 75
FONTBOUNDINGBOX 7 14 0 -2
STARTPROPERTIES 25
FONT_ASCENT 12
FONT_DESCENT 2
DEFAULT_CHAR 0
FONTNAME_REGISTRY ""
FOUNDRY "Misc"
FAMILY_NAME "Fixed"
WEIGHT_NAME "Bold"
SLANT "R"
SETWIDTH_NAME "Normal"
ADD_STYLE_NAME "Sans"
PIXEL_SIZE 14
POINT_SIZE 130
RESOLUTION_X 75
RESOLUTION_Y 75
SPACING "C"
AVERAGE_WIDTH 70
CHARSET_REGISTRY "ISO8859"
CHARSET_ENCODING "2"
COPYRIGHT "Libor Skarvada, libor@informatics.muni.cz"
FONT "-Misc-Fixed-Bold-R-Normal-Sans-14-130-75-75-C-70-ISO8859-2"
WEIGHT 10
RESOLUTION 103
CAP_HEIGHT 9
X_HEIGHT 7
QUAD_WIDTH 7
ENDPROPERTIES
CHARS 224
STARTCHAR 0
ENCODING 0
SWIDTH 517 0
DWIDTH 7 0
BBX 1 1 0 -2
BITMAP
00
ENDCHAR
STARTCHAR 1
ENCODING 1
SWIDTH 517 0
DWIDTH 7 0
BBX 6 10 0 0
BITMAP
30
30
78
78
fc
fc
78
78
30
30
ENDCHAR
STARTCHAR 2
ENCODING 2
SWIDTH 517 0
DWIDTH 7 0
BBX 7 14 0 -2
BITMAP
76
ee
dc
ba
76
ee
dc
ba
76
ee
dc
ba
76
ee
ENDCHAR
STARTCHAR 3
ENCODING 3
SWIDTH 517 0
DWIDTH 7 0
BBX 1 1 0 -2
BITMAP
00
ENDCHAR
STARTCHAR 4
ENCODING 4
SWIDTH 517 0
DWIDTH 7 0
BBX 1 1 0 -2
BITMAP
00
ENDCHAR
STARTCHAR 5
ENCODING 5
SWIDTH 517 0
DWIDTH 7 0
BBX 1 1 0 -2
BITMAP
00
ENDCHAR
STARTCHAR 6
ENCODING 6
SWIDTH 517 0
DWIDTH 7 0
BBX 1 1 0 -2
BITMAP
00
ENDCHAR
STARTCHAR 7
ENCODING 7
SWIDTH 517 0
DWIDTH 7 0
BBX 1 1 0 -2
BITMAP
00
ENDCHAR
STARTCHAR 8
ENCODING 8
SWIDTH 517 0
DWIDTH 7 0
BBX 1 1 0 -2
BITMAP
00
ENDCHAR
STARTCHAR 9
ENCODING 9
SWIDTH 517 0
DWIDTH 7 0
BBX 1 1 0 -2
BITMAP
00
ENDCHAR
STARTCHAR 10
ENCODING 10
SWIDTH 517 0
DWIDTH 7 0
BBX 1 1 0 -2
BITMAP
00
ENDCHAR
STARTCHAR 11
ENCODING 11
SWIDTH 517 0
DWIDTH 7 0
BBX 4 8 0 4
BITMAP
30
30
30
30
30
30
f0
f0
ENDCHAR
STARTCHAR 12
ENCODING 12
SWIDTH 517 0
DWIDTH 7 0
BBX 4 8 0 -2
BITMAP
f0
f0
30
30
30
30
30
30
ENDCHAR
STARTCHAR 13
ENCODING 13
SWIDTH 517 0
DWIDTH 7 0
BBX 5 8 2 -2
BITMAP
f8
f8
c0
c0
c0
c0
c0
c0
ENDCHAR
STARTCHAR 14
ENCODING 14
SWIDTH 517 0
DWIDTH 7 0
BBX 5 8 2 4
BITMAP
c0
c0
c0
c0
c0
c0
f8
f8
ENDCHAR
STARTCHAR 15
ENCODING 15
SWIDTH 517 0
DWIDTH 7 0
BBX 7 14 0 -2
BITMAP
30
30
30
30
30
30
fe
fe
30
30
30
30
30
30
ENDCHAR
STARTCHAR 16
ENCODING 16
SWIDTH 517 0
DWIDTH 7 0
BBX 7 2 0 10
BITMAP
fe
fe
ENDCHAR
STARTCHAR 17
ENCODING 17
SWIDTH 517 0
DWIDTH 7 0
BBX 7 2 0 7
BITMAP
fe
fe
ENDCHAR
STARTCHAR 18
ENCODING 18
SWIDTH 517 0
DWIDTH 7 0
BBX 7 2 0 4
BITMAP
fe
fe
ENDCHAR
STARTCHAR 19
ENCODING 19
SWIDTH 517 0
DWIDTH 7 0
BBX 7 2 0 1
BITMAP
fe
fe
ENDCHAR
STARTCHAR 20
ENCODING 20
SWIDTH 517 0
DWIDTH 7 0
BBX 7 2 0 -2
BITMAP
fe
fe
ENDCHAR
STARTCHAR 21
ENCODING 21
SWIDTH 517 0
DWIDTH 7 0
BBX 5 14 2 -2
BITMAP
c0
c0
c0
c0
c0
c0
f8
f8
c0
c0
c0
c0
c0
c0
ENDCHAR
STARTCHAR 22
ENCODING 22
SWIDTH 517 0
DWIDTH 7 0
BBX 4 14 0 -2
BITMAP
30
30
30
30
30
30
f0
f0
30
30
30
30
30
30
ENDCHAR
STARTCHAR 23
ENCODING 23
SWIDTH 517 0
DWIDTH 7 0
BBX 7 8 0 4
BITMAP
30
30
30
30
30
30
fe
fe
ENDCHAR
STARTCHAR 24
ENCODING 24
SWIDTH 517 0
DWIDTH 7 0
BBX 7 8 0 -2
BITMAP
fe
fe
30
30
30
30
30
30
ENDCHAR
STARTCHAR 25
ENCODING 25
SWIDTH 517 0
DWIDTH 7 0
BBX 2 14 2 -2
BITMAP
c0
c0
c0
c0
c0
c0
c0
c0
c0
c0
c0
c0
c0
c0
ENDCHAR
STARTCHAR 26
ENCODING 26
SWIDTH 517 0
DWIDTH 7 0
BBX 5 7 1 1
BITMAP
18
70
c0
70
18
00
f8
ENDCHAR
STARTCHAR 27
ENCODING 27
SWIDTH 517 0
DWIDTH 7 0
BBX 5 7 1 1
BITMAP
c0
70
18
70
c0
00
f8
ENDCHAR
STARTCHAR 28
ENCODING 28
SWIDTH 517 0
DWIDTH 7 0
BBX 7 7 0 0
BITMAP
7e
cc
4c
4c
4c
4c
cc
ENDCHAR
STARTCHAR 29
ENCODING 29
SWIDTH 517 0
DWIDTH 7 0
BBX 6 7 0 0
BITMAP
04
0c
fc
30
fc
c0
80
ENDCHAR
STARTCHAR 30
ENCODING 30
SWIDTH 517 0
DWIDTH 7 0
BBX 7 9 0 0
BITMAP
38
6c
60
60
f8
60
60
e2
bc
ENDCHAR
STARTCHAR 31
ENCODING 31
SWIDTH 517 0
DWIDTH 7 0
BBX 2 2 2 4
BITMAP
c0
c0
ENDCHAR
STARTCHAR 32
ENCODING 32
SWIDTH 517 0
DWIDTH 7 0
BBX 1 1 0 -2
BITMAP
00
ENDCHAR
STARTCHAR 33
ENCODING 33
SWIDTH 517 0
DWIDTH 7 0
BBX 2 9 2 0
BITMAP
c0
c0
c0
c0
c0
c0
00
c0
c0
ENDCHAR
STARTCHAR 34
ENCODING 34
SWIDTH 517 0
DWIDTH 7 0
BBX 5 4 1 7
BITMAP
d8
d8
d8
50
ENDCHAR
STARTCHAR 35
ENCODING 35
SWIDTH 517 0
DWIDTH 7 0
BBX 6 10 0 0
BITMAP
68
68
fc
fc
58
58
fc
fc
b0
b0
ENDCHAR
STARTCHAR 36
ENCODING 36
SWIDTH 517 0
DWIDTH 7 0
BBX 6 11 0 -1
BITMAP
30
78
b4
b4
70
38
34
b4
b4
78
30
ENDCHAR
STARTCHAR 37
ENCODING 37
SWIDTH 517 0
DWIDTH 7 0
BBX 6 10 0 0
BITMAP
6c
dc
d8
70
10
20
38
6c
ec
d8
ENDCHAR
STARTCHAR 38
ENCODING 38
SWIDTH 517 0
DWIDTH 7 0
BBX 6 10 0 0
BITMAP
38
6c
6c
6c
38
6c
dc
d8
d8
6c
ENDCHAR
STARTCHAR 39
ENCODING 39
SWIDTH 517 0
DWIDTH 7 0
BBX 3 4 1 8
BITMAP
e0
60
60
c0
ENDCHAR
STARTCHAR 40
ENCODING 40
SWIDTH 517 0
DWIDTH 7 0
BBX 5 13 1 -2
BITMAP
18
30
60
60
c0
c0
c0
c0
c0
60
60
30
18
ENDCHAR
STARTCHAR 41
ENCODING 41
SWIDTH 517 0
DWIDTH 7 0
BBX 5 13 0 -2
BITMAP
c0
60
30
30
18
18
18
18
18
30
30
60
c0
ENDCHAR
STARTCHAR 42
ENCODING 42
SWIDTH 517 0
DWIDTH 7 0
BBX 6 7 0 2
BITMAP
30
b4
78
30
78
b4
30
ENDCHAR
STARTCHAR 43
ENCODING 43
SWIDTH 517 0
DWIDTH 7 0
BBX 6 7 0 1
BITMAP
30
30
30
fc
30
30
30
ENDCHAR
STARTCHAR 44
ENCODING 44
SWIDTH 517 0
DWIDTH 7 0
BBX 3 4 1 -2
BITMAP
e0
60
60
c0
ENDCHAR
STARTCHAR 45
ENCODING 45
SWIDTH 517 0
DWIDTH 7 0
BBX 6 2 0 4
BITMAP
fc
fc
ENDCHAR
STARTCHAR 46
ENCODING 46
SWIDTH 517 0
DWIDTH 7 0
BBX 2 2 2 0
BITMAP
c0
c0
ENDCHAR
STARTCHAR 47
ENCODING 47
SWIDTH 517 0
DWIDTH 7 0
BBX 6 13 0 -2
BITMAP
0c
0c
0c
18
18
30
30
30
60
60
c0
c0
c0
ENDCHAR
STARTCHAR 48
ENCODING 48
SWIDTH 517 0
DWIDTH 7 0
BBX 6 9 0 0
BITMAP
78
cc
cc
cc
cc
cc
cc
cc
78
ENDCHAR
STARTCHAR 49
ENCODING 49
SWIDTH 517 0
DWIDTH 7 0
BBX 6 9 0 0
BITMAP
30
70
f0
30
30
30
30
30
fc
ENDCHAR
STARTCHAR 50
ENCODING 50
SWIDTH 517 0
DWIDTH 7 0
BBX 6 9 0 0
BITMAP
78
cc
cc
0c
18
30
60
c0
fc
ENDCHAR
STARTCHAR 51
ENCODING 51
SWIDTH 517 0
DWIDTH 7 0
BBX 6 9 0 0
BITMAP
78
cc
cc
0c
38
0c
cc
cc
78
ENDCHAR
STARTCHAR 52
ENCODING 52
SWIDTH 517 0
DWIDTH 7 0
BBX 6 9 0 0
BITMAP
08
18
38
78
58
d8
fc
08
08
ENDCHAR
STARTCHAR 53
ENCODING 53
SWIDTH 517 0
DWIDTH 7 0
BBX 6 9 0 0
BITMAP
fc
c0
c0
f8
cc
0c
cc
cc
78
ENDCHAR
STARTCHAR 54
ENCODING 54
SWIDTH 517 0
DWIDTH 7 0
BBX 6 9 0 0
BITMAP
78
cc
c0
c0
f8
cc
cc
cc
78
ENDCHAR
STARTCHAR 55
ENCODING 55
SWIDTH 517 0
DWIDTH 7 0
BBX 6 9 0 0
BITMAP
fc
cc
0c
18
18
30
30
30
30
ENDCHAR
STARTCHAR 56
ENCODING 56
SWIDTH 517 0
DWIDTH 7 0
BBX 6 9 0 0
BITMAP
78
cc
cc
78
78
cc
cc
cc
78
ENDCHAR
STARTCHAR 57
ENCODING 57
SWIDTH 517 0
DWIDTH 7 0
BBX 6 9 0 0
BITMAP
78
cc
cc
cc
7c
0c
0c
cc
78
ENDCHAR
STARTCHAR 58
ENCODING 58
SWIDTH 517 0
DWIDTH 7 0
BBX 2 7 2 1
BITMAP
c0
c0
00
00
00
c0
c0
ENDCHAR
STARTCHAR 59
ENCODING 59
SWIDTH 517 0
DWIDTH 7 0
BBX 3 9 1 -1
BITMAP
60
60
00
00
00
e0
60
60
c0
ENDCHAR
STARTCHAR 60
ENCODING 60
SWIDTH 517 0
DWIDTH 7 0
BBX 6 9 0 0
BITMAP
0c
18
30
60
c0
60
30
18
0c
ENDCHAR
STARTCHAR 61
ENCODING 61
SWIDTH 517 0
DWIDTH 7 0
BBX 6 5 0 2
BITMAP
fc
fc
00
fc
fc
ENDCHAR
STARTCHAR 62
ENCODING 62
SWIDTH 517 0
DWIDTH 7 0
BBX 6 9 0 0
BITMAP
c0
60
30
18
0c
18
30
60
c0
ENDCHAR
STARTCHAR 63
ENCODING 63
SWIDTH 517 0
DWIDTH 7 0
BBX 6 10 0 0
BITMAP
78
cc
cc
18
30
30
30
00
30
30
ENDCHAR
STARTCHAR 64
ENCODING 64
SWIDTH 517 0
DWIDTH 7 0
BBX 6 10 0 0
BITMAP
38
6c
dc
d4
d4
d4
d4
cc
60
3c
ENDCHAR
STARTCHAR 65
ENCODING 65
SWIDTH 517 0
DWIDTH 7 0
BBX 6 9 0 0
BITMAP
78
fc
cc
cc
cc
fc
cc
cc
cc
ENDCHAR
STARTCHAR 66
ENCODING 66
SWIDTH 517 0
DWIDTH 7 0
BBX 6 9 0 0
BITMAP
f8
cc
cc
c8
f8
cc
cc
cc
f8
ENDCHAR
STARTCHAR 67
ENCODING 67
SWIDTH 517 0
DWIDTH 7 0
BBX 6 9 0 0
BITMAP
78
cc
cc
c0
c0
c0
cc
cc
78
ENDCHAR
STARTCHAR 68
ENCODING 68
SWIDTH 517 0
DWIDTH 7 0
BBX 6 9 0 0
BITMAP
f0
d8
cc
cc
cc
cc
cc
d8
f0
ENDCHAR
STARTCHAR 69
ENCODING 69
SWIDTH 517 0
DWIDTH 7 0
BBX 6 9 0 0
BITMAP
fc
c0
c0
c0
f8
c0
c0
c0
fc
ENDCHAR
STARTCHAR 70
ENCODING 70
SWIDTH 517 0
DWIDTH 7 0
BBX 6 9 0 0
BITMAP
fc
c0
c0
c0
f8
c0
c0
c0
c0
ENDCHAR
STARTCHAR 71
ENCODING 71
SWIDTH 517 0
DWIDTH 7 0
BBX 6 9 0 0
BITMAP
78
cc
c0
c0
dc
cc
cc
cc
78
ENDCHAR
STARTCHAR 72
ENCODING 72
SWIDTH 517 0
DWIDTH 7 0
BBX 6 9 0 0
BITMAP
cc
cc
cc
cc
fc
cc
cc
cc
cc
ENDCHAR
STARTCHAR 73
ENCODING 73
SWIDTH 517 0
DWIDTH 7 0
BBX 6 9 0 0
BITMAP
fc
30
30
30
30
30
30
30
fc
ENDCHAR
STARTCHAR 74
ENCODING 74
SWIDTH 517 0
DWIDTH 7 0
BBX 6 9 0 0
BITMAP
0c
0c
0c
0c
0c
0c
cc
cc
78
ENDCHAR
STARTCHAR 75
ENCODING 75
SWIDTH 517 0
DWIDTH 7 0
BBX 6 9 0 0
BITMAP
cc
d8
f0
e0
f0
f0
d8
cc
cc
ENDCHAR
STARTCHAR 76
ENCODING 76
SWIDTH 517 0
DWIDTH 7 0
BBX 6 9 0 0
BITMAP
c0
c0
c0
c0
c0
c0
c0
c0
fc
ENDCHAR
STARTCHAR 77
ENCODING 77
SWIDTH 517 0
DWIDTH 7 0
BBX 6 9 0 0
BITMAP
84
cc
cc
fc
fc
cc
cc
cc
cc
ENDCHAR
STARTCHAR 78
ENCODING 78
SWIDTH 517 0
DWIDTH 7 0
BBX 6 9 0 0
BITMAP
cc
cc
ec
ec
ec
dc
dc
dc
cc
ENDCHAR
STARTCHAR 79
ENCODING 79
SWIDTH 517 0
DWIDTH 7 0
BBX 6 9 0 0
BITMAP
78
cc
cc
cc
cc
cc
cc
cc
78
ENDCHAR
STARTCHAR 80
ENCODING 80
SWIDTH 517 0
DWIDTH 7 0
BBX 6 9 0 0
BITMAP
f8
cc
cc
cc
cc
f8
c0
c0
c0
ENDCHAR
STARTCHAR 81
ENCODING 81
SWIDTH 517 0
DWIDTH 7 0
BBX 6 11 0 -2
BITMAP
78
cc
cc
cc
cc
ec
dc
cc
78
0c
04
ENDCHAR
STARTCHAR 82
ENCODING 82
SWIDTH 517 0
DWIDTH 7 0
BBX 6 9 0 0
BITMAP
f8
cc
cc
cc
f8
d8
cc
cc
cc
ENDCHAR
STARTCHAR 83
ENCODING 83
SWIDTH 517 0
DWIDTH 7 0
BBX 6 9 0 0
BITMAP
78
cc
cc
60
30
18
cc
cc
78
ENDCHAR
STARTCHAR 84
ENCODING 84
SWIDTH 517 0
DWIDTH 7 0
BBX 6 9 0 0
BITMAP
fc
30
30
30
30
30
30
30
30
ENDCHAR
STARTCHAR 85
ENCODING 85
SWIDTH 517 0
DWIDTH 7 0
BBX 6 9 0 0
BITMAP
cc
cc
cc
cc
cc
cc
cc
cc
78
ENDCHAR
STARTCHAR 86
ENCODING 86
SWIDTH 517 0
DWIDTH 7 0
BBX 6 9 0 0
BITMAP
cc
cc
cc
cc
cc
cc
78
78
30
ENDCHAR
STARTCHAR 87
ENCODING 87
SWIDTH 517 0
DWIDTH 7 0
BBX 6 9 0 0
BITMAP
cc
cc
cc
cc
fc
fc
fc
fc
48
ENDCHAR
STARTCHAR 88
ENCODING 88
SWIDTH 517 0
DWIDTH 7 0
BBX 6 9 0 0
BITMAP
cc
cc
78
78
30
78
78
cc
cc
ENDCHAR
STARTCHAR 89
ENCODING 89
SWIDTH 517 0
DWIDTH 7 0
BBX 6 9 0 0
BITMAP
cc
cc
cc
78
78
30
30
30
30
ENDCHAR
STARTCHAR 90
ENCODING 90
SWIDTH 517 0
DWIDTH 7 0
BBX 6 9 0 0
BITMAP
fc
0c
18
18
30
60
60
c0
fc
ENDCHAR
STARTCHAR 91
ENCODING 91
SWIDTH 517 0
DWIDTH 7 0
BBX 5 13 1 -2
BITMAP
f8
c0
c0
c0
c0
c0
c0
c0
c0
c0
c0
c0
f8
ENDCHAR
STARTCHAR 92
ENCODING 92
SWIDTH 517 0
DWIDTH 7 0
BBX 6 13 0 -2
BITMAP
c0
c0
c0
60
60
30
30
30
18
18
0c
0c
0c
ENDCHAR
STARTCHAR 93
ENCODING 93
SWIDTH 517 0
DWIDTH 7 0
BBX 5 13 0 -2
BITMAP
f8
18
18
18
18
18
18
18
18
18
18
18
f8
ENDCHAR
STARTCHAR 94
ENCODING 94
SWIDTH 517 0
DWIDTH 7 0
BBX 6 3 0 9
BITMAP
30
78
cc
ENDCHAR
STARTCHAR 95
ENCODING 95
SWIDTH 517 0
DWIDTH 7 0
BBX 6 2 0 -2
BITMAP
fc
fc
ENDCHAR
STARTCHAR 96
ENCODING 96
SWIDTH 517 0
DWIDTH 7 0
BBX 3 4 2 8
BITMAP
e0
c0
c0
60
ENDCHAR
STARTCHAR 97
ENCODING 97
SWIDTH 517 0
DWIDTH 7 0
BBX 6 7 0 0
BITMAP
78
cc
1c
6c
cc
cc
7c
ENDCHAR
STARTCHAR 98
ENCODING 98
SWIDTH 517 0
DWIDTH 7 0
BBX 6 10 0 0
BITMAP
c0
c0
c0
f8
cc
cc
cc
cc
cc
f8
ENDCHAR
STARTCHAR 99
ENCODING 99
SWIDTH 517 0
DWIDTH 7 0
BBX 6 7 0 0
BITMAP
78
cc
c0
c0
c0
cc
78
ENDCHAR
STARTCHAR 100
ENCODING 100
SWIDTH 517 0
DWIDTH 7 0
BBX 6 10 0 0
BITMAP
0c
0c
0c
7c
cc
cc
cc
cc
cc
7c
ENDCHAR
STARTCHAR 101
ENCODING 101
SWIDTH 517 0
DWIDTH 7 0
BBX 6 7 0 0
BITMAP
78
cc
cc
fc
c0
cc
78
ENDCHAR
STARTCHAR 102
ENCODING 102
SWIDTH 517 0
DWIDTH 7 0
BBX 6 10 0 0
BITMAP
18
3c
30
30
fc
30
30
30
30
30
ENDCHAR
STARTCHAR 103
ENCODING 103
SWIDTH 517 0
DWIDTH 7 0
BBX 6 9 0 -2
BITMAP
74
cc
cc
cc
78
40
f8
cc
78
ENDCHAR
STARTCHAR 104
ENCODING 104
SWIDTH 517 0
DWIDTH 7 0
BBX 6 10 0 0
BITMAP
c0
c0
c0
f8
cc
cc
cc
cc
cc
cc
ENDCHAR
STARTCHAR 105
ENCODING 105
SWIDTH 517 0
DWIDTH 7 0
BBX 2 10 2 0
BITMAP
c0
c0
00
c0
c0
c0
c0
c0
c0
c0
ENDCHAR
STARTCHAR 106
ENCODING 106
SWIDTH 517 0
DWIDTH 7 0
BBX 5 12 0 -2
BITMAP
18
18
00
18
18
18
18
18
18
18
d8
70
ENDCHAR
STARTCHAR 107
ENCODING 107
SWIDTH 517 0
DWIDTH 7 0
BBX 6 10 0 0
BITMAP
c0
c0
c0
c8
d8
f0
f0
d8
cc
c4
ENDCHAR
STARTCHAR 108
ENCODING 108
SWIDTH 517 0
DWIDTH 7 0
BBX 2 10 2 0
BITMAP
c0
c0
c0
c0
c0
c0
c0
c0
c0
c0
ENDCHAR
STARTCHAR 109
ENCODING 109
SWIDTH 517 0
DWIDTH 7 0
BBX 6 7 0 0
BITMAP
d8
fc
d4
d4
d4
d4
d4
ENDCHAR
STARTCHAR 110
ENCODING 110
SWIDTH 517 0
DWIDTH 7 0
BBX 6 7 0 0
BITMAP
f8
cc
cc
cc
cc
cc
cc
ENDCHAR
STARTCHAR 111
ENCODING 111
SWIDTH 517 0
DWIDTH 7 0
BBX 6 7 0 0
BITMAP
78
cc
cc
cc
cc
cc
78
ENDCHAR
STARTCHAR 112
ENCODING 112
SWIDTH 517 0
DWIDTH 7 0
BBX 6 9 0 -2
BITMAP
f8
cc
cc
cc
cc
cc
f8
c0
c0
ENDCHAR
STARTCHAR 113
ENCODING 113
SWIDTH 517 0
DWIDTH 7 0
BBX 6 9 0 -2
BITMAP
7c
cc
cc
cc
cc
cc
7c
0c
0c
ENDCHAR
STARTCHAR 114
ENCODING 114
SWIDTH 517 0
DWIDTH 7 0
BBX 6 7 0 0
BITMAP
f8
cc
cc
c0
c0
c0
c0
ENDCHAR
STARTCHAR 115
ENCODING 115
SWIDTH 517 0
DWIDTH 7 0
BBX 6 7 0 0
BITMAP
78
cc
60
30
18
cc
78
ENDCHAR
STARTCHAR 116
ENCODING 116
SWIDTH 517 0
DWIDTH 7 0
BBX 6 10 0 0
BITMAP
30
30
30
fc
30
30
30
30
30
1c
ENDCHAR
STARTCHAR 117
ENCODING 117
SWIDTH 517 0
DWIDTH 7 0
BBX 6 7 0 0
BITMAP
cc
cc
cc
cc
cc
cc
7c
ENDCHAR
STARTCHAR 118
ENCODING 118
SWIDTH 517 0
DWIDTH 7 0
BBX 6 7 0 0
BITMAP
cc
cc
cc
78
78
30
30
ENDCHAR
STARTCHAR 119
ENCODING 119
SWIDTH 517 0
DWIDTH 7 0
BBX 6 7 0 0
BITMAP
cc
cc
fc
fc
fc
fc
48
ENDCHAR
STARTCHAR 120
ENCODING 120
SWIDTH 517 0
DWIDTH 7 0
BBX 6 7 0 0
BITMAP
cc
cc
78
30
78
cc
cc
ENDCHAR
STARTCHAR 121
ENCODING 121
SWIDTH 517 0
DWIDTH 7 0
BBX 6 9 0 -2
BITMAP
cc
cc
cc
cc
cc
6c
3c
0c
78
ENDCHAR
STARTCHAR 122
ENCODING 122
SWIDTH 517 0
DWIDTH 7 0
BBX 6 7 0 0
BITMAP
fc
0c
18
30
60
c0
fc
ENDCHAR
STARTCHAR 123
ENCODING 123
SWIDTH 517 0
DWIDTH 7 0
BBX 5 13 1 -2
BITMAP
38
60
60
60
60
60
c0
60
60
60
60
60
38
ENDCHAR
STARTCHAR 124
ENCODING 124
SWIDTH 517 0
DWIDTH 7 0
BBX 2 13 2 -2
BITMAP
c0
c0
c0
c0
c0
c0
c0
c0
c0
c0
c0
c0
c0
ENDCHAR
STARTCHAR 125
ENCODING 125
SWIDTH 517 0
DWIDTH 7 0
BBX 5 13 0 -2
BITMAP
e0
30
30
30
30
30
18
30
30
30
30
30
e0
ENDCHAR
STARTCHAR 126
ENCODING 126
SWIDTH 517 0
DWIDTH 7 0
BBX 6 4 0 7
BITMAP
40
f4
bc
08
ENDCHAR
STARTCHAR 127
ENCODING 127
SWIDTH 517 0
DWIDTH 7 0
BBX 1 1 0 -2
BITMAP
00
ENDCHAR
STARTCHAR 160
ENCODING 160
SWIDTH 517 0
DWIDTH 7 0
BBX 1 1 0 -2
BITMAP
00
ENDCHAR
STARTCHAR 161
ENCODING 161
SWIDTH 517 0
DWIDTH 7 0
BBX 6 11 0 -2
BITMAP
78
fc
cc
cc
cc
fc
cc
cc
cc
18
0c
ENDCHAR
STARTCHAR 162
ENCODING 162
SWIDTH 517 0
DWIDTH 7 0
BBX 6 2 0 10
BITMAP
cc
78
ENDCHAR
STARTCHAR 163
ENCODING 163
SWIDTH 517 0
DWIDTH 7 0
BBX 6 9 0 0
BITMAP
60
60
6c
78
70
e0
e0
60
7c
ENDCHAR
STARTCHAR 164
ENCODING 164
SWIDTH 517 0
DWIDTH 7 0
BBX 6 6 0 2
BITMAP
cc
78
68
58
78
cc
ENDCHAR
STARTCHAR 165
ENCODING 165
SWIDTH 517 0
DWIDTH 7 0
BBX 6 10 0 0
BITMAP
1c
cc
d8
c0
c0
c0
c0
c0
c0
fc
ENDCHAR
STARTCHAR 166
ENCODING 166
SWIDTH 517 0
DWIDTH 7 0
BBX 6 12 0 0
BITMAP
18
30
00
78
cc
cc
60
30
18
cc
cc
78
ENDCHAR
STARTCHAR 167
ENCODING 167
SWIDTH 517 0
DWIDTH 7 0
BBX 6 11 0 0
BITMAP
78
cc
60
30
78
cc
78
30
18
cc
78
ENDCHAR
STARTCHAR 168
ENCODING 168
SWIDTH 517 0
DWIDTH 7 0
BBX 5 2 0 9
BITMAP
d8
d8
ENDCHAR
STARTCHAR 169
ENCODING 169
SWIDTH 517 0
DWIDTH 7 0
BBX 6 12 0 0
BITMAP
cc
78
00
78
cc
cc
60
30
18
cc
cc
78
ENDCHAR
STARTCHAR 170
ENCODING 170
SWIDTH 517 0
DWIDTH 7 0
BBX 6 11 0 -2
BITMAP
78
cc
cc
60
30
18
cc
cc
78
30
60
ENDCHAR
STARTCHAR 171
ENCODING 171
SWIDTH 517 0
DWIDTH 7 0
BBX 6 12 0 0
BITMAP
cc
78
00
fc
30
30
30
30
30
30
30
30
ENDCHAR
STARTCHAR 172
ENCODING 172
SWIDTH 517 0
DWIDTH 7 0
BBX 6 12 0 0
BITMAP
18
30
00
fc
0c
18
18
30
60
60
c0
fc
ENDCHAR
STARTCHAR 173
ENCODING 173
SWIDTH 517 0
DWIDTH 7 0
BBX 4 2 0 3
BITMAP
f0
f0
ENDCHAR
STARTCHAR 174
ENCODING 174
SWIDTH 517 0
DWIDTH 7 0
BBX 6 12 0 0
BITMAP
cc
78
00
fc
0c
18
18
30
60
60
c0
fc
ENDCHAR
STARTCHAR 175
ENCODING 175
SWIDTH 517 0
DWIDTH 7 0
BBX 6 12 0 0
BITMAP
30
30
00
fc
0c
18
18
30
60
60
c0
fc
ENDCHAR
STARTCHAR 176
ENCODING 176
SWIDTH 517 0
DWIDTH 7 0
BBX 5 4 0 7
BITMAP
70
d8
d8
70
ENDCHAR
STARTCHAR 177
ENCODING 177
SWIDTH 517 0
DWIDTH 7 0
BBX 6 9 0 -2
BITMAP
78
cc
1c
6c
cc
cc
7c
18
0c
ENDCHAR
STARTCHAR 178
ENCODING 178
SWIDTH 517 0
DWIDTH 7 0
BBX 3 3 2 -2
BITMAP
c0
c0
60
ENDCHAR
STARTCHAR 179
ENCODING 179
SWIDTH 517 0
DWIDTH 7 0
BBX 6 10 0 0
BITMAP
30
30
34
3c
38
30
70
f0
b0
30
ENDCHAR
STARTCHAR 180
ENCODING 180
SWIDTH 517 0
DWIDTH 7 0
BBX 4 3 1 8
BITMAP
30
60
c0
ENDCHAR
STARTCHAR 181
ENCODING 181
SWIDTH 517 0
DWIDTH 7 0
BBX 5 11 1 0
BITMAP
38
d8
d0
c0
c0
c0
c0
c0
c0
c0
c0
ENDCHAR
STARTCHAR 182
ENCODING 182
SWIDTH 517 0
DWIDTH 7 0
BBX 6 11 0 0
BITMAP
0c
18
30
00
78
cc
60
30
18
cc
78
ENDCHAR
STARTCHAR 183
ENCODING 183
SWIDTH 517 0
DWIDTH 7 0
BBX 6 3 0 8
BITMAP
cc
78
30
ENDCHAR
STARTCHAR 184
ENCODING 184
SWIDTH 517 0
DWIDTH 7 0
BBX 3 3 1 -2
BITMAP
60
60
c0
ENDCHAR
STARTCHAR 185
ENCODING 185
SWIDTH 517 0
DWIDTH 7 0
BBX 6 11 0 0
BITMAP
cc
78
30
00
78
cc
60
30
18
cc
78
ENDCHAR
STARTCHAR 186
ENCODING 186
SWIDTH 517 0
DWIDTH 7 0
BBX 6 9 0 -2
BITMAP
78
cc
60
30
18
cc
78
30
60
ENDCHAR
STARTCHAR 187
ENCODING 187
SWIDTH 517 0
DWIDTH 7 0
BBX 7 11 0 0
BITMAP
0e
66
6c
60
f8
60
60
60
60
60
38
ENDCHAR
STARTCHAR 188
ENCODING 188
SWIDTH 517 0
DWIDTH 7 0
BBX 6 11 0 0
BITMAP
0c
18
30
00
fc
0c
18
30
60
c0
fc
ENDCHAR
STARTCHAR 189
ENCODING 189
SWIDTH 517 0
DWIDTH 7 0
BBX 7 2 0 9
BITMAP
66
cc
ENDCHAR
STARTCHAR 190
ENCODING 190
SWIDTH 517 0
DWIDTH 7 0
BBX 6 11 0 0
BITMAP
cc
78
30
00
fc
0c
18
30
60
c0
fc
ENDCHAR
STARTCHAR 191
ENCODING 191
SWIDTH 517 0
DWIDTH 7 0
BBX 6 10 0 0
BITMAP
30
30
00
fc
0c
18
30
60
c0
fc
ENDCHAR
STARTCHAR 192
ENCODING 192
SWIDTH 517 0
DWIDTH 7 0
BBX 6 12 0 0
BITMAP
18
30
00
f8
cc
cc
cc
f8
d8
cc
cc
cc
ENDCHAR
STARTCHAR 193
ENCODING 193
SWIDTH 517 0
DWIDTH 7 0
BBX 6 12 0 0
BITMAP
18
30
00
78
fc
cc
cc
cc
fc
cc
cc
cc
ENDCHAR
STARTCHAR 194
ENCODING 194
SWIDTH 517 0
DWIDTH 7 0
BBX 6 12 0 0
BITMAP
78
cc
00
78
fc
cc
cc
cc
fc
cc
cc
cc
ENDCHAR
STARTCHAR 195
ENCODING 195
SWIDTH 517 0
DWIDTH 7 0
BBX 6 12 0 0
BITMAP
cc
78
00
78
fc
cc
cc
cc
fc
cc
cc
cc
ENDCHAR
STARTCHAR 196
ENCODING 196
SWIDTH 517 0
DWIDTH 7 0
BBX 6 12 0 0
BITMAP
cc
cc
00
78
fc
cc
cc
cc
fc
cc
cc
cc
ENDCHAR
STARTCHAR 197
ENCODING 197
SWIDTH 517 0
DWIDTH 7 0
BBX 6 12 0 0
BITMAP
30
60
00
c0
c0
c0
c0
c0
c0
c0
c0
fc
ENDCHAR
STARTCHAR 198
ENCODING 198
SWIDTH 517 0
DWIDTH 7 0
BBX 6 12 0 0
BITMAP
18
30
00
78
cc
cc
c0
c0
c0
cc
cc
78
ENDCHAR
STARTCHAR 199
ENCODING 199
SWIDTH 517 0
DWIDTH 7 0
BBX 6 11 0 -2
BITMAP
78
cc
cc
c0
c0
c0
cc
cc
78
30
60
ENDCHAR
STARTCHAR 200
ENCODING 200
SWIDTH 517 0
DWIDTH 7 0
BBX 6 12 0 0
BITMAP
cc
78
00
78
cc
cc
c0
c0
c0
cc
cc
78
ENDCHAR
STARTCHAR 201
ENCODING 201
SWIDTH 517 0
DWIDTH 7 0
BBX 6 12 0 0
BITMAP
18
30
00
fc
c0
c0
c0
f8
c0
c0
c0
fc
ENDCHAR
STARTCHAR 202
ENCODING 202
SWIDTH 517 0
DWIDTH 7 0
BBX 6 11 0 -2
BITMAP
fc
c0
c0
c0
f8
c0
c0
c0
fc
18
0c
ENDCHAR
STARTCHAR 203
ENCODING 203
SWIDTH 517 0
DWIDTH 7 0
BBX 6 12 0 0
BITMAP
6c
6c
00
fc
c0
c0
c0
f8
c0
c0
c0
fc
ENDCHAR
STARTCHAR 204
ENCODING 204
SWIDTH 517 0
DWIDTH 7 0
BBX 6 12 0 0
BITMAP
cc
78
00
fc
c0
c0
c0
f8
c0
c0
c0
fc
ENDCHAR
STARTCHAR 205
ENCODING 205
SWIDTH 517 0
DWIDTH 7 0
BBX 6 12 0 0
BITMAP
18
30
00
fc
30
30
30
30
30
30
30
fc
ENDCHAR
STARTCHAR 206
ENCODING 206
SWIDTH 517 0
DWIDTH 7 0
BBX 6 12 0 0
BITMAP
78
cc
00
fc
30
30
30
30
30
30
30
fc
ENDCHAR
STARTCHAR 207
ENCODING 207
SWIDTH 517 0
DWIDTH 7 0
BBX 6 12 0 0
BITMAP
cc
78
00
f0
d8
cc
cc
cc
cc
cc
d8
f0
ENDCHAR
STARTCHAR 208
ENCODING 208
SWIDTH 517 0
DWIDTH 7 0
BBX 7 9 0 0
BITMAP
f8
6c
66
66
f6
66
66
6c
f8
ENDCHAR
STARTCHAR 209
ENCODING 209
SWIDTH 517 0
DWIDTH 7 0
BBX 6 12 0 0
BITMAP
18
30
00
cc
cc
ec
ec
ec
dc
dc
dc
cc
ENDCHAR
STARTCHAR 210
ENCODING 210
SWIDTH 517 0
DWIDTH 7 0
BBX 6 12 0 0
BITMAP
cc
78
00
cc
cc
ec
ec
ec
dc
dc
dc
cc
ENDCHAR
STARTCHAR 211
ENCODING 211
SWIDTH 517 0
DWIDTH 7 0
BBX 6 12 0 0
BITMAP
18
30
00
78
cc
cc
cc
cc
cc
cc
cc
78
ENDCHAR
STARTCHAR 212
ENCODING 212
SWIDTH 517 0
DWIDTH 7 0
BBX 6 12 0 0
BITMAP
78
cc
00
78
cc
cc
cc
cc
cc
cc
cc
78
ENDCHAR
STARTCHAR 213
ENCODING 213
SWIDTH 517 0
DWIDTH 7 0
BBX 7 12 0 0
BITMAP
66
cc
00
78
cc
cc
cc
cc
cc
cc
cc
78
ENDCHAR
STARTCHAR 214
ENCODING 214
SWIDTH 517 0
DWIDTH 7 0
BBX 6 12 0 0
BITMAP
cc
cc
00
78
cc
cc
cc
cc
cc
cc
cc
78
ENDCHAR
STARTCHAR 215
ENCODING 215
SWIDTH 517 0
DWIDTH 7 0
BBX 7 6 0 1
BITMAP
c6
6c
38
38
6c
c6
ENDCHAR
STARTCHAR 216
ENCODING 216
SWIDTH 517 0
DWIDTH 7 0
BBX 6 12 0 0
BITMAP
cc
78
00
f8
cc
cc
cc
f8
d8
cc
cc
cc
ENDCHAR
STARTCHAR 217
ENCODING 217
SWIDTH 517 0
DWIDTH 7 0
BBX 6 12 0 0
BITMAP
30
48
30
cc
cc
cc
cc
cc
cc
cc
cc
78
ENDCHAR
STARTCHAR 218
ENCODING 218
SWIDTH 517 0
DWIDTH 7 0
BBX 6 12 0 0
BITMAP
18
30
00
cc
cc
cc
cc
cc
cc
cc
cc
78
ENDCHAR
STARTCHAR 219
ENCODING 219
SWIDTH 517 0
DWIDTH 7 0
BBX 7 12 0 0
BITMAP
66
cc
00
cc
cc
cc
cc
cc
cc
cc
cc
78
ENDCHAR
STARTCHAR 220
ENCODING 220
SWIDTH 517 0
DWIDTH 7 0
BBX 6 12 0 0
BITMAP
cc
cc
00
cc
cc
cc
cc
cc
cc
cc
cc
78
ENDCHAR
STARTCHAR 221
ENCODING 221
SWIDTH 517 0
DWIDTH 7 0
BBX 6 12 0 0
BITMAP
18
30
00
cc
cc
cc
78
78
30
30
30
30
ENDCHAR
STARTCHAR 222
ENCODING 222
SWIDTH 517 0
DWIDTH 7 0
BBX 6 11 0 -2
BITMAP
fc
30
30
30
30
30
30
30
30
18
30
ENDCHAR
STARTCHAR 223
ENCODING 223
SWIDTH 517 0
DWIDTH 7 0
BBX 6 10 0 0
BITMAP
38
6c
6c
6c
f8
6c
6c
6c
6c
d8
ENDCHAR
STARTCHAR 224
ENCODING 224
SWIDTH 517 0
DWIDTH 7 0
BBX 6 11 0 0
BITMAP
0c
18
30
00
f8
cc
cc
c0
c0
c0
c0
ENDCHAR
STARTCHAR 225
ENCODING 225
SWIDTH 517 0
DWIDTH 7 0
BBX 6 11 0 0
BITMAP
0c
18
30
00
78
cc
1c
6c
cc
cc
7c
ENDCHAR
STARTCHAR 226
ENCODING 226
SWIDTH 517 0
DWIDTH 7 0
BBX 6 11 0 0
BITMAP
10
38
6c
00
78
cc
1c
6c
cc
cc
7c
ENDCHAR
STARTCHAR 227
ENCODING 227
SWIDTH 517 0
DWIDTH 7 0
BBX 6 11 0 0
BITMAP
cc
cc
78
00
78
cc
1c
6c
cc
cc
7c
ENDCHAR
STARTCHAR 228
ENCODING 228
SWIDTH 517 0
DWIDTH 7 0
BBX 6 11 0 0
BITMAP
cc
cc
00
00
78
cc
1c
6c
cc
cc
7c
ENDCHAR
STARTCHAR 229
ENCODING 229
SWIDTH 517 0
DWIDTH 7 0
BBX 3 12 2 0
BITMAP
60
c0
00
c0
c0
c0
c0
c0
c0
c0
c0
c0
ENDCHAR
STARTCHAR 230
ENCODING 230
SWIDTH 517 0
DWIDTH 7 0
BBX 6 11 0 0
BITMAP
0c
18
30
00
78
cc
c0
c0
c0
cc
78
ENDCHAR
STARTCHAR 231
ENCODING 231
SWIDTH 517 0
DWIDTH 7 0
BBX 6 9 0 -2
BITMAP
78
cc
c0
c0
c0
cc
78
30
60
ENDCHAR
STARTCHAR 232
ENCODING 232
SWIDTH 517 0
DWIDTH 7 0
BBX 6 11 0 0
BITMAP
cc
78
30
00
78
cc
c0
c0
c0
cc
78
ENDCHAR
STARTCHAR 233
ENCODING 233
SWIDTH 517 0
DWIDTH 7 0
BBX 6 11 0 0
BITMAP
0c
18
30
00
78
cc
cc
fc
c0
cc
78
ENDCHAR
STARTCHAR 234
ENCODING 234
SWIDTH 517 0
DWIDTH 7 0
BBX 6 9 0 -2
BITMAP
78
cc
cc
fc
c0
cc
78
30
18
ENDCHAR
STARTCHAR 235
ENCODING 235
SWIDTH 517 0
DWIDTH 7 0
BBX 6 10 0 0
BITMAP
6c
6c
00
78
cc
cc
fc
c0
cc
78
ENDCHAR
STARTCHAR 236
ENCODING 236
SWIDTH 517 0
DWIDTH 7 0
BBX 6 11 0 0
BITMAP
cc
78
30
00
78
cc
cc
fc
c0
cc
78
ENDCHAR
STARTCHAR 237
ENCODING 237
SWIDTH 517 0
DWIDTH 7 0
BBX 4 11 2 0
BITMAP
30
60
c0
00
c0
c0
c0
c0
c0
c0
c0
ENDCHAR
STARTCHAR 238
ENCODING 238
SWIDTH 517 0
DWIDTH 7 0
BBX 6 11 0 0
BITMAP
30
78
cc
00
30
30
30
30
30
30
30
ENDCHAR
STARTCHAR 239
ENCODING 239
SWIDTH 517 0
DWIDTH 7 0
BBX 7 12 0 0
BITMAP
0e
06
1c
18
18
78
d8
d8
d8
d8
d8
78
ENDCHAR
STARTCHAR 240
ENCODING 240
SWIDTH 517 0
DWIDTH 7 0
BBX 7 10 0 0
BITMAP
0c
3e
0c
7c
cc
cc
cc
cc
cc
7c
ENDCHAR
STARTCHAR 241
ENCODING 241
SWIDTH 517 0
DWIDTH 7 0
BBX 6 11 0 0
BITMAP
0c
18
30
00
f8
cc
cc
cc
cc
cc
cc
ENDCHAR
STARTCHAR 242
ENCODING 242
SWIDTH 517 0
DWIDTH 7 0
BBX 6 11 0 0
BITMAP
cc
78
30
00
f8
cc
cc
cc
cc
cc
cc
ENDCHAR
STARTCHAR 243
ENCODING 243
SWIDTH 517 0
DWIDTH 7 0
BBX 6 11 0 0
BITMAP
0c
18
30
00
78
cc
cc
cc
cc
cc
78
ENDCHAR
STARTCHAR 244
ENCODING 244
SWIDTH 517 0
DWIDTH 7 0
BBX 6 11 0 0
BITMAP
30
78
cc
00
78
cc
cc
cc
cc
cc
78
ENDCHAR
STARTCHAR 245
ENCODING 245
SWIDTH 517 0
DWIDTH 7 0
BBX 7 10 0 0
BITMAP
66
cc
00
78
cc
cc
cc
cc
cc
78
ENDCHAR
STARTCHAR 246
ENCODING 246
SWIDTH 517 0
DWIDTH 7 0
BBX 6 11 0 0
BITMAP
cc
cc
00
00
78
cc
cc
cc
cc
cc
78
ENDCHAR
STARTCHAR 247
ENCODING 247
SWIDTH 517 0
DWIDTH 7 0
BBX 6 5 0 0
BITMAP
30
00
fc
00
30
ENDCHAR
STARTCHAR 248
ENCODING 248
SWIDTH 517 0
DWIDTH 7 0
BBX 6 11 0 0
BITMAP
cc
78
30
00
f8
cc
cc
c0
c0
c0
c0
ENDCHAR
STARTCHAR 249
ENCODING 249
SWIDTH 517 0
DWIDTH 7 0
BBX 6 11 0 0
BITMAP
30
48
30
00
cc
cc
cc
cc
cc
cc
7c
ENDCHAR
STARTCHAR 250
ENCODING 250
SWIDTH 517 0
DWIDTH 7 0
BBX 6 11 0 0
BITMAP
0c
18
30
00
cc
cc
cc
cc
cc
cc
7c
ENDCHAR
STARTCHAR 251
ENCODING 251
SWIDTH 517 0
DWIDTH 7 0
BBX 7 10 0 0
BITMAP
66
cc
00
cc
cc
cc
cc
cc
cc
7c
ENDCHAR
STARTCHAR 252
ENCODING 252
SWIDTH 517 0
DWIDTH 7 0
BBX 6 11 0 0
BITMAP
cc
cc
00
00
cc
cc
cc
cc
cc
cc
7c
ENDCHAR
STARTCHAR 253
ENCODING 253
SWIDTH 517 0
DWIDTH 7 0
BBX 6 13 0 -2
BITMAP
0c
18
30
00
cc
cc
cc
cc
cc
6c
3c
0c
78
ENDCHAR
STARTCHAR 254
ENCODING 254
SWIDTH 517 0
DWIDTH 7 0
BBX 6 12 0 -2
BITMAP
30
30
30
fc
30
30
30
30
30
1c
18
30
ENDCHAR
STARTCHAR 255
ENCODING 255
SWIDTH 517 0
DWIDTH 7 0
BBX 2 2 2 9
BITMAP
c0
c0
ENDCHAR
ENDFONT
